<?xml version="1.0" standalone="no"?>
<!DOCTYPE svg PUBLIC "-//W3C//DTD SVG 20010904//EN"
 "http://www.w3.org/TR/2001/REC-SVG-20010904/DTD/svg10.dtd">
<svg version="1.0" xmlns="http://www.w3.org/2000/svg"
 width="5000.000000pt" height="5000.000000pt" viewBox="0 0 5000.000000 5000.000000"
 preserveAspectRatio="xMidYMid meet">
<metadata>
Created by potrace 1.11, written by Peter Selinger 2001-2013
</metadata>
<g transform="translate(0.000000,5000.000000) scale(0.100000,-0.100000)"
fill="#000000" stroke="none">
<path d="M25815 42033 c-2589 -75 -5118 -677 -7640 -1819 -311 -140 -1065
-517 -1365 -682 -668 -366 -1287 -746 -1818 -1115 -85 -59 -158 -107 -163
-107 -6 0 -42 22 -82 49 -155 104 -421 245 -630 335 -1127 481 -2426 442
-3521 -106 -259 -130 -530 -303 -756 -484 -173 -138 -506 -471 -644 -644 -113
-140 -301 -417 -379 -555 -502 -895 -663 -1908 -462 -2910 141 -702 460 -1355
930 -1902 l75 -86 -19 -31 c-136 -225 -497 -951 -698 -1401 -1954 -4384 -1772
-8828 530 -12985 693 -1251 1595 -2474 2583 -3502 l152 -157 -43 -128 c-232
-687 -232 -1440 1 -2130 118 -350 293 -676 531 -985 112 -145 426 -459 571
-571 534 -411 1134 -644 1796 -697 791 -63 1602 170 2236 644 63 47 122 86
131 86 8 0 121 -22 250 -49 2199 -462 4254 -614 5969 -440 1737 175 3190 651
4530 1485 647 402 1585 1108 2255 1698 501 442 1012 957 1430 1442 1546 1797
2520 3900 2879 6215 151 968 163 1662 46 2479 -232 1617 -1031 3305 -2305
4870 -711 873 -1609 1736 -2447 2352 -489 360 -886 592 -1278 747 -1595 632
-3280 855 -4820 640 -1830 -255 -3452 -1101 -4855 -2530 -441 -450 -751 -827
-1050 -1279 -923 -1394 -1324 -3015 -1144 -4625 244 -2188 1522 -4077 3388
-5009 853 -426 1770 -636 2778 -636 676 0 1249 87 1809 275 900 301 1633 849
2192 1638 524 738 892 1707 1047 2757 14 96 32 211 41 255 22 117 28 313 15
439 -93 855 -862 1471 -1718 1375 -630 -70 -1163 -534 -1322 -1150 -233 -902
374 -1802 1297 -1924 271 -36 550 1 799 105 214 89 438 253 580 425 43 51 79
92 81 91 1 -2 -25 -88 -59 -192 -411 -1271 -1010 -2191 -1797 -2758 -317 -228
-705 -418 -1093 -536 -502 -152 -1134 -222 -1854 -205 -402 9 -562 28 -870
107 -787 199 -1601 627 -2300 1207 -181 150 -561 528 -705 701 -662 795 -1057
1696 -1190 2712 -85 653 -57 1359 81 2077 166 861 438 1589 847 2271 442 736
1048 1401 1767 1938 151 113 449 313 610 409 971 582 2104 951 3245 1058 1792
167 3515 -294 4847 -1299 397 -299 685 -575 1206 -1154 1620 -1802 2490 -3372
2761 -4988 107 -631 119 -1317 36 -1979 -145 -1152 -586 -2387 -1313 -3680
-478 -850 -1128 -1803 -1834 -2688 -1091 -1366 -2389 -2349 -3919 -2967 -2097
-847 -4627 -957 -7264 -314 -208 51 -591 152 -598 159 -2 2 8 42 22 88 291
953 140 1989 -410 2819 -120 181 -238 323 -424 508 -312 313 -621 527 -1000
694 -1122 494 -2432 335 -3386 -410 -52 -41 -98 -74 -102 -74 -14 0 -359 403
-569 665 -1486 1853 -2447 3915 -2847 6106 -157 860 -225 1686 -213 2584 6
441 14 615 47 1010 144 1725 627 3543 1344 5055 59 124 113 233 121 243 13 18
21 16 167 -41 763 -298 1568 -369 2373 -207 656 132 1262 415 1795 841 175
140 507 471 644 644 786 988 1088 2233 841 3465 -88 438 -237 835 -472 1257
-23 43 -34 71 -28 77 16 14 471 278 707 410 3826 2131 7609 2948 11293 2440
2822 -389 5566 -1563 8077 -3455 1028 -776 2030 -1692 2879 -2634 90 -100 165
-186 167 -191 2 -4 -41 -68 -96 -141 -528 -704 -838 -1501 -939 -2408 -24
-217 -24 -743 0 -960 90 -806 336 -1501 764 -2160 178 -272 370 -507 623 -761
398 -399 818 -700 1315 -940 523 -252 1046 -397 1665 -461 191 -20 706 -17
910 5 991 108 1853 471 2620 1107 148 122 461 434 579 575 578 694 943 1490
1080 2350 44 281 55 426 55 765 0 339 -11 484 -55 765 -137 860 -502 1656
-1080 2350 -118 141 -431 453 -579 575 -687 569 -1453 922 -2310 1064 -295 49
-440 60 -790 60 -350 0 -495 -11 -790 -60 -235 -39 -540 -113 -699 -169 l-37
-13 -190 182 c-2441 2335 -4905 4029 -7519 5168 -2411 1050 -4968 1589 -7475
1576 -195 -1 -395 -3 -445 -5z"/>
</g>
</svg>
